<svg version="1.0" xmlns="http://www.w3.org/2000/svg" width="800.000000" height="800.000000" viewBox="0 0 800.000000 800.000000" preserveAspectRatio="xMidYMid meet">
  <metadata>
    <rdf:RDF xmlns:rdf="http://www.w3.org/1999/02/22-rdf-syntax-ns#" xmlns:rdfs="http://www.w3.org/2000/01/rdf-schema#" xmlns:dc="http://purl.org/dc/elements/1.1/">
      <rdf:Description dc:format="image/svg+xml" dc:Label="1" dc:ContentProducer="001191330110MACRLGPT8B00000" dc:ProduceID="400202191" dc:ReservedCode1="urAEmG3d0yTY5VDROkYFwEL+l/6YH+wq4YqjMr5Gm7c=" dc:ContentPropagator="001191330110MACRLGPT8B00000" dc:PropagateID="400202191" dc:ReservedCode2="urAEmG3d0yTY5VDROkYFwEL+l/6YH+wq4YqjMr5Gm7c="/>
    </rdf:RDF>
  </metadata>
  
  <defs>
    <!-- 主体：灵动紫蓝渐变 -->
    <linearGradient id="arcane" x1="0" y1="0" x2="1" y2="1">
      <stop offset="0%" stop-color="#4f46e5"/>
      <stop offset="100%" stop-color="#a855f7"/>
    </linearGradient>
    <!-- 球体 1：翠绿渐变 -->
    <linearGradient id="gem1" x1="0" y1="0" x2="1" y2="1">
      <stop offset="0%" stop-color="#34d399"/>
      <stop offset="100%" stop-color="#059669"/>
    </linearGradient>
    <!-- 球体 2：琥珀橙渐变 -->
    <linearGradient id="gem2" x1="0" y1="0" x2="1" y2="1">
      <stop offset="0%" stop-color="#fbbf24"/>
      <stop offset="100%" stop-color="#ea580c"/>
    </linearGradient>
  </defs>

  <rect x="72" y="72" width="656" height="656" rx="132" ry="132" fill="#FFFFFF" />

  <g transform="translate(0.000000,800.000000) scale(0.100000,-0.100000)" stroke="none">
    
    <!-- 主体图案 -->
    <path fill="url(#arcane)" d="M4285 6336 c-52 -24 -103 -74 -131 -128 -22 -43 -30 -145 -14 -193 27 -82 111 -145 213 -160 34 -5 47 -12 47 -24 1 -26 -62 -845 -65 -857 -2 -7 -26 -8 -76 -2 -209 23 -488 -50 -678 -177 l-71 -47 -74 79 c-40 43 -177 188 -303 323 l-230 245 37 50 c75 100 100 176 100 303 0 209 -127 384 -331 452 -53 18 -81 21 -169 18 -96 -3 -111 -6 -182 -40 -128 -61 -214 -156 -258 -289 -18 -53 -21 -81 -18 -170 3 -99 6 -110 42 -185 125 -253 444 -351 681 -208 l55 33 99 -102 c54 -56 191 -201 304 -322 l206 -220 -78 -80 c-42 -44 -93 -103 -113 -130 -52 -72 -123 -219 -150 -309 -21 -72 -23 -75 -47 -69 -24 5 -680 172 -761 193 l-35 9 -1 69 c-2 263 -328 397 -512 209 -60 -61 -86 -127 -86 -212 0 -300 392 -413 553 -159 l26 41 55 -12 c56 -12 774 -196 776 -198 1 -1 -3 -38 -8 -82 -15 -141 11 -343 61 -475 l21 -55 -33 -32 c-17 -18 -140 -129 -272 -246 l-240 -214 -40 18 c-140 60 -297 2 -355 -133 -72 -167 62 -358 250 -358 134 0 260 127 260 261 0 38 -28 117 -53 153 l-21 29 30 25 c16 13 67 59 114 101 47 43 152 137 234 210 l149 133 20 -34 c73 -121 112 -173 187 -248 144 -146 322 -248 512 -294 73 -17 88 -24 88 -40 0 -20 -76 -542 -85 -582 -4 -17 -15 -23 -53 -28 -179 -24 -264 -247 -146 -384 74 -86 211 -107 307 -47 108 68 144 193 88 303 -23 46 -91 109 -125 118 -21 5 -24 10 -20 33 3 15 25 155 47 312 l42 284 85 -3 c217 -9 486 71 657 195 l48 34 33 -38 c19 -21 78 -94 132 -163 54 -69 126 -160 160 -202 l61 -78 -26 -34 c-15 -19 -37 -66 -51 -103 -28 -80 -32 -206 -10 -289 61 -232 305 -385 547 -345 318 52 495 387 359 679 -33 70 -123 171 -186 208 -177 104 -388 92 -548 -30 l-49 -38 -22 24 c-13 12 -98 117 -189 232 l-165 209 73 77 c90 95 146 175 203 296 113 240 134 530 56 779 -48 152 -129 293 -237 411 l-55 61 22 20 c22 20 483 368 544 412 l33 22 45 -31 c69 -48 124 -63 213 -58 94 4 157 32 224 99 60 60 94 160 84 246 -13 113 -90 218 -194 266 -66 31 -198 31 -264 0 -158 -72 -237 -270 -168 -418 13 -27 24 -53 24 -56 1 -4 -137 -110 -306 -237 -267 -201 -308 -229 -319 -215 -48 57 -291 182 -406 210 -67 15 -73 19 -73 42 0 14 16 234 36 488 20 255 33 470 30 478 -7 18 -59 20 -85 3 -15 -9 -27 -6 -66 16 -119 70 -113 256 10 316 97 47 212 10 278 -88 28 -42 60 -55 70 -28 8 20 -47 99 -93 136 -81 64 -195 78 -285 36z m-1857 -664 c2 -7 -3 -12 -12 -12 -9 0 -16 7 -16 16 0 17 22 14 28 -4z m-65 -133 c15 -24 1 -49 -27 -49 -29 0 -44 33 -25 56 15 18 38 15 52 -7z m181 -25 c19 -18 20 -28 6 -55 -20 -37 -80 -18 -80 26 0 42 44 59 74 29z m3485 -154 c1 -141 -87 -239 -234 -259 -30 -4 -55 -4 -55 1 0 4 7 8 16 8 24 0 156 137 178 185 10 22 27 48 37 58 11 10 24 39 31 64 9 38 13 43 19 27 4 -10 8 -48 8 -84z m-1581 -474 c178 -49 324 -134 459 -267 152 -149 241 -308 289 -515 24 -101 25 -326 2 -429 -93 -417 -415 -733 -827 -811 -443 -85 -896 130 -1111 529 -140 260 -161 610 -51 876 132 322 414 557 759 632 128 28 351 21 480 -15z m-2268 -341 c0 -9 -7 -18 -16 -22 -18 -7 -39 11 -30 26 11 17 46 13 46 -4z m-3 -128 c-5 -16 -37 -21 -50 -8 -18 18 11 43 35 30 10 -6 17 -16 15 -22z m232 -1500 c-15 -32 -5 -87 22 -120 10 -14 45 -38 75 -52 32 -15 52 -30 48 -35 -5 -5 -31 -13 -59 -17 -44 -7 -50 -11 -53 -35 -5 -44 51 -97 113 -107 l50 -7 -31 -17 c-80 -42 -170 -29 -239 34 -58 53 -79 110 -72 190 7 80 46 144 106 176 24 13 46 21 48 19 2 -2 -1 -15 -8 -29z m3429 -363 c29 -14 67 -43 85 -65 62 -71 107 -188 106 -269 l-1 -35 -10 35 c-19 66 -84 129 -153 146 -28 7 -29 30 -1 28 24 -2 20 8 -21 62 -44 58 -56 68 -105 91 -21 9 -38 20 -38 25 0 18 88 7 138 -18z m-1749 -559 c12 -49 1 -122 -23 -157 -12 -17 -14 -14 -19 27 -7 69 -57 115 -142 131 l-38 7 52 19 c39 15 58 29 74 56 l21 35 32 -37 c17 -20 37 -57 43 -81z"/>
    
    <!-- 左侧球体及附件 -->
    <path fill="url(#gem1)" d="M3476 4471 c-4 -5 -3 -17 0 -26 10 -25 58 -16 62 13 3 19 -1 22 -27 22 -16 0 -32 -4 -35 -9z"/>
    <path fill="url(#gem1)" d="M3970 4440 c-155 -76 -284 -240 -326 -416 -34 -142 -13 -347 47 -466 38 -75 109 -167 161 -209 28 -22 52 -38 54 -37 1 2 -12 33 -30 70 -42 82 -54 169 -33 221 9 20 34 49 58 66 l42 31 -47 0 c-76 0 -162 53 -137 84 11 13 143 75 225 106 l29 10 -54 28 c-70 36 -92 67 -97 141 -9 119 62 270 171 366 28 25 45 45 36 45 -8 0 -53 -18 -99 -40z"/>
    <path fill="url(#gem1)" d="M3405 4430 c-7 -12 2 -30 16 -30 12 0 12 27 0 35 -5 3 -12 1 -16 -5z"/>
    <path fill="url(#gem1)" d="M3485 4371 c-3 -5 -1 -12 5 -16 12 -7 30 2 30 16 0 12 -27 12 -35 0z"/>
    
    <!-- 右侧球体及附件 -->
    <path fill="#FF6B6B" d="M5664 6234 c-25 -75 -29 -105 -29 -194 0 -107 18 -193 49 -235 13 -18 15 -16 30 35 26 86 16 413 -14 469 -4 8 -18 -20 -36 -75z"/>
    <path fill="#4ECDC4" d="M5915 6044 c-47 -103 -56 -131 -51 -159 8 -43 21 -51 50 -32 42 28 58 81 64 204 3 62 3 113 0 113 -3 0 -31 -56 -63 -126z"/>
    <path fill="#FFD166" d="M5314 6004 c24 -65 115 -210 141 -226 32 -19 70 -24 79 -10 12 19 -16 80 -51 113 -67 64 -177 144 -169 123z"/>
  </g>
</svg>
